<?xml version="1.0" encoding="UTF-8"?>
<svg version="1.1" xmlns="http://www.w3.org/2000/svg" width="1080" height="905">
<path d="M0 0 C48.84 0 97.68 0 148 0 C148.33 0.99 148.66 1.98 149 3 C149.59949463 2.99476318 150.19898926 2.98952637 150.81665039 2.98413086 C153.56525602 2.96318557 156.31384478 2.95028444 159.0625 2.9375 C160.00544922 2.92912109 160.94839844 2.92074219 161.91992188 2.91210938 C167.0630768 2.89418897 171.93258427 3.10740389 177 4 C177.33 5.65 177.66 7.3 178 9 C178.59538574 8.99476318 179.19077148 8.98952637 179.80419922 8.98413086 C182.49445547 8.96338001 185.18469489 8.95034593 187.875 8.9375 C188.81214844 8.92912109 189.74929688 8.92074219 190.71484375 8.91210938 C192.05869141 8.90727539 192.05869141 8.90727539 193.4296875 8.90234375 C194.25710449 8.89710693 195.08452148 8.89187012 195.93701172 8.88647461 C198 9 198 9 200 10 C200.625 12.5625 200.625 12.5625 201 15 C202.14339844 14.98839844 203.28679688 14.97679687 204.46484375 14.96484375 C205.95572754 14.95546712 207.44661309 14.94636679 208.9375 14.9375 C210.06961914 14.92493164 210.06961914 14.92493164 211.22460938 14.91210938 C213.14994313 14.90347559 215.07535581 14.94775667 217 15 C218 16 218 16 218 21 C223.61 21 229.22 21 235 21 C235 22.65 235 24.3 235 26 C235.61488281 25.97679688 236.22976563 25.95359375 236.86328125 25.9296875 C237.67152344 25.91164063 238.47976563 25.89359375 239.3125 25.875 C240.51326172 25.84019531 240.51326172 25.84019531 241.73828125 25.8046875 C244 26 244 26 247 28 C247 29.32 247 30.64 247 32 C250.63 32 254.26 32 258 32 C258 33.98 258 35.96 258 38 C263.61 38 269.22 38 275 38 C275 39.98 275 41.96 275 44 C276.98 44 278.96 44 281 44 C281 45.65 281 47.3 281 49 C281.69867187 48.98839844 282.39734375 48.97679687 283.1171875 48.96484375 C284.02726563 48.95582031 284.93734375 48.94679687 285.875 48.9375 C286.77992188 48.92589844 287.68484375 48.91429687 288.6171875 48.90234375 C291 49 291 49 293 50 C293 51.65 293 53.3 293 55 C294.06541016 54.98259766 294.06541016 54.98259766 295.15234375 54.96484375 C296.07144531 54.95582031 296.99054687 54.94679687 297.9375 54.9375 C298.85402344 54.92589844 299.77054688 54.91429687 300.71484375 54.90234375 C303 55 303 55 304 56 C304 57.65 304 59.3 304 61 C307.63 61 311.26 61 315 61 C315.33 62.98 315.66 64.96 316 67 C317.65 67 319.3 67 321 67 C321 68.65 321 70.3 321 72 C321.61488281 71.97679688 322.22976563 71.95359375 322.86328125 71.9296875 C323.67152344 71.91164063 324.47976563 71.89359375 325.3125 71.875 C326.51326172 71.84019531 326.51326172 71.84019531 327.73828125 71.8046875 C330 72 330 72 333 74 C333 75.32 333 76.64 333 78 C334.65 78 336.3 78 338 78 C338.33 79.98 338.66 81.96 339 84 C340.65 84 342.3 84 344 84 C344 85.98 344 87.96 344 90 C347.63 90 351.26 90 355 90 C355.33 91.65 355.66 93.3 356 95 C358.475 95.495 358.475 95.495 361 96 C361.33 97.32 361.66 98.64 362 100 C364.475 100.495 364.475 100.495 367 101 C367 102.98 367 104.96 367 107 C368.98 107 370.96 107 373 107 C373 108.98 373 110.96 373 113 C374.98 113 376.96 113 379 113 C379 114.65 379 116.3 379 118 C380.65 118 382.3 118 384 118 C384.33 119.98 384.66 121.96 385 124 C386.65 124 388.3 124 390 124 C390 125.98 390 127.96 390 130 C391.98 130 393.96 130 396 130 C396 131.98 396 133.96 396 136 C397.98 136 399.96 136 402 136 C402 137.65 402 139.3 402 141 C403.65 141 405.3 141 407 141 C407.33 142.98 407.66 144.96 408 147 C409.65 147 411.3 147 413 147 C413 148.98 413 150.96 413 153 C413.804375 152.979375 414.60875 152.95875 415.4375 152.9375 C418 153 418 153 419 154 C419.04063832 155.66617115 419.042721 157.33388095 419 159 C420.65 159 422.3 159 424 159 C425.28317892 162.84953676 425.06643637 165.94738135 425 170 C426.65 170 428.3 170 430 170 C430.33 171.98 430.66 173.96 431 176 C432.65 176 434.3 176 436 176 C436 177.98 436 179.96 436 182 C436.804375 181.979375 437.60875 181.95875 438.4375 181.9375 C441 182 441 182 442 183 C442.07205511 184.68608966 442.08386068 186.37500659 442.0625 188.0625 C442.05347656 188.98160156 442.04445313 189.90070313 442.03515625 190.84765625 C442.01775391 191.91306641 442.01775391 191.91306641 442 193 C442.804375 192.979375 443.60875 192.95875 444.4375 192.9375 C447 193 447 193 448 194 C448.04063832 195.66617115 448.042721 197.33388095 448 199 C449.65 199.33 451.3 199.66 453 200 C453.33 203.3 453.66 206.6 454 210 C455.65 210.33 457.3 210.66 459 211 C459 214.63 459 218.26 459 222 C460.98 222 462.96 222 465 222 C465 225.63 465 229.26 465 233 C466.65 233 468.3 233 470 233 C471 234 471 234 471.09765625 236.50390625 C471.08025391 238.01791016 471.08025391 238.01791016 471.0625 239.5625 C471.05347656 240.57441406 471.04445313 241.58632813 471.03515625 242.62890625 C471.01775391 243.80259766 471.01775391 243.80259766 471 245 C472.65 245 474.3 245 476 245 C476 248.63 476 252.26 476 256 C477.65 256 479.3 256 481 256 C482 257 482 257 482.09765625 259.50390625 C482.08025391 261.01791016 482.08025391 261.01791016 482.0625 262.5625 C482.05347656 263.57441406 482.04445313 264.58632813 482.03515625 265.62890625 C482.01775391 266.80259766 482.01775391 266.80259766 482 268 C483.65 268 485.3 268 487 268 C488.53266582 271.06533164 488.10276471 274.26754272 488.0625 277.625 C488.05798828 278.33140625 488.05347656 279.0378125 488.04882812 279.765625 C488.03703875 281.51045275 488.01910324 283.255237 488 285 C488.804375 284.979375 489.60875 284.95875 490.4375 284.9375 C493 285 493 285 494 286 C494.07319621 288.69654854 494.09242537 291.36691458 494.0625 294.0625 C494.05798828 294.82111328 494.05347656 295.57972656 494.04882812 296.36132812 C494.0370068 298.24091871 494.01907078 300.12046899 494 302 C495.65 302 497.3 302 499 302 C499 307.61 499 313.22 499 319 C500.98 319.33 502.96 319.66 505 320 C505 327.59 505 335.18 505 343 C506.65 343 508.3 343 510 343 C511.47905238 345.95810476 511.12190903 348.9547155 511.09765625 352.1953125 C511.0962413 352.90275604 511.09482635 353.61019958 511.09336853 354.33908081 C511.087766 356.60109669 511.07521318 358.86301398 511.0625 361.125 C511.05748532 362.65755065 511.05292236 364.19010286 511.04882812 365.72265625 C511.03779577 369.48180888 511.02052952 373.24088772 511 377 C512.65 377 514.3 377 516 377 C519.43187671 383.86375343 517 392.32609038 517 400 C551.98 400 586.96 400 623 400 C623 420.79 623 441.58 623 463 C588.02 463 553.04 463 517 463 C517 474.88 517 486.76 517 499 C516.34 500.32 515.68 501.64 515 503 C513.68 503 512.36 503 511 503 C511 513.89 511 524.78 511 536 C509.35 536.66 507.7 537.32 506 538 C505.67 545.26 505.34 552.52 505 560 C503.02 560.33 501.04 560.66 499 561 C499 566.61 499 572.22 499 578 C497.35 578 495.7 578 494 578 C494.01740234 579.58941406 494.01740234 579.58941406 494.03515625 581.2109375 C494.04453476 582.59895658 494.05363489 583.98697755 494.0625 585.375 C494.07087891 586.07367187 494.07925781 586.77234375 494.08789062 587.4921875 C494.11328125 592.7734375 494.11328125 592.7734375 493 595 C491.35 595 489.7 595 488 595 C488.01740234 596.58941406 488.01740234 596.58941406 488.03515625 598.2109375 C488.04453476 599.59895658 488.05363489 600.98697755 488.0625 602.375 C488.07087891 603.07367187 488.07925781 603.77234375 488.08789062 604.4921875 C488.11328125 609.7734375 488.11328125 609.7734375 487 612 C485.35 612 483.7 612 482 612 C482.01160156 612.78246094 482.02320313 613.56492187 482.03515625 614.37109375 C482.04869141 615.88896484 482.04869141 615.88896484 482.0625 617.4375 C482.07990234 618.95150391 482.07990234 618.95150391 482.09765625 620.49609375 C482 623 482 623 481 624 C479.35 624 477.7 624 476 624 C476 627.63 476 631.26 476 635 C474.35 635 472.7 635 471 635 C471.02320313 635.69867187 471.04640625 636.39734375 471.0703125 637.1171875 C471.08835937 638.02726563 471.10640625 638.93734375 471.125 639.875 C471.14820313 640.77992188 471.17140625 641.68484375 471.1953125 642.6171875 C471 645 471 645 469 647 C467.68 647 466.36 647 465 647 C465.01160156 647.71027344 465.02320313 648.42054688 465.03515625 649.15234375 C465.04417969 650.07144531 465.05320312 650.99054687 465.0625 651.9375 C465.07410156 652.85402344 465.08570313 653.77054688 465.09765625 654.71484375 C465 657 465 657 464 658 C462.33382885 658.04063832 460.66611905 658.042721 459 658 C459.01160156 658.78246094 459.02320313 659.56492187 459.03515625 660.37109375 C459.04869141 661.88896484 459.04869141 661.88896484 459.0625 663.4375 C459.07990234 664.95150391 459.07990234 664.95150391 459.09765625 666.49609375 C459 669 459 669 458 670 C456.33382885 670.04063832 454.66611905 670.042721 453 670 C453 671.65 453 673.3 453 675 C451.35 675.33 449.7 675.66 448 676 C448.01160156 676.62648438 448.02320313 677.25296875 448.03515625 677.8984375 C448.04869141 679.12433594 448.04869141 679.12433594 448.0625 680.375 C448.07410156 681.18710937 448.08570313 681.99921875 448.09765625 682.8359375 C448 685 448 685 447 687 C445.35 687 443.7 687 442 687 C442 688.98 442 690.96 442 693 C440.02 693 438.04 693 436 693 C436 696.63 436 700.26 436 704 C434.35 704.33 432.7 704.66 431 705 C430.67 706.65 430.34 708.3 430 710 C428.35 710 426.7 710 425 710 C425.020625 710.804375 425.04125 711.60875 425.0625 712.4375 C425 715 425 715 424 716 C422.33382885 716.04063832 420.66611905 716.042721 419 716 C419.01160156 716.62648438 419.02320313 717.25296875 419.03515625 717.8984375 C419.04869141 719.12433594 419.04869141 719.12433594 419.0625 720.375 C419.07410156 721.18710937 419.08570313 721.99921875 419.09765625 722.8359375 C419 725 419 725 418 727 C416.35 727 414.7 727 413 727 C413.020625 727.804375 413.04125 728.60875 413.0625 729.4375 C413 732 413 732 412 733 C410.33382885 733.04063832 408.66611905 733.042721 407 733 C407 734.65 407 736.3 407 738 C405.35 738.33 403.7 738.66 402 739 C401.67 740.65 401.34 742.3 401 744 C399.35 744 397.7 744 396 744 C396 745.98 396 747.96 396 750 C394.02 750 392.04 750 390 750 C390 751.98 390 753.96 390 756 C388.35 756 386.7 756 385 756 C384.67 757.98 384.34 759.96 384 762 C382.35 762 380.7 762 379 762 C379 763.65 379 765.3 379 767 C377.02 767 375.04 767 373 767 C373.020625 767.804375 373.04125 768.60875 373.0625 769.4375 C373 772 373 772 372 773 C370.33382885 773.04063832 368.66611905 773.042721 367 773 C367.020625 773.804375 367.04125 774.60875 367.0625 775.4375 C367 778 367 778 366 779 C364.33382885 779.04063832 362.66611905 779.042721 361 779 C361 780.65 361 782.3 361 784 C357.32589215 785.17571451 353.83070817 785.07366746 350 785 C350 786.65 350 788.3 350 790 C348.02 790 346.04 790 344 790 C344 791.98 344 793.96 344 796 C342.35 796 340.7 796 339 796 C338.67 797.98 338.34 799.96 338 802 C334.37 802 330.74 802 327 802 C327 803.65 327 805.3 327 807 C326 808 326 808 323.4375 808.0625 C322.633125 808.041875 321.82875 808.02125 321 808 C321 809.65 321 811.3 321 813 C317.37 813 313.74 813 310 813 C310 814.98 310 816.96 310 819 C308.02 819 306.04 819 304 819 C303.855625 819.804375 303.71125 820.60875 303.5625 821.4375 C303 824 303 824 302 825 C300.48071962 825.07179964 298.95832518 825.08392007 297.4375 825.0625 C296.61121094 825.05347656 295.78492188 825.04445313 294.93359375 825.03515625 C294.29550781 825.02355469 293.65742187 825.01195312 293 825 C292.87625 825.804375 292.7525 826.60875 292.625 827.4375 C292.41875 828.283125 292.2125 829.12875 292 830 C289.59454362 831.20272819 288.05003047 831.10071472 285.375 831.0625 C284.55773437 831.05347656 283.74046875 831.04445313 282.8984375 831.03515625 C281.95871094 831.01775391 281.95871094 831.01775391 281 831 C281 832.65 281 834.3 281 836 C277.37 836 273.74 836 270 836 C270 837.65 270 839.3 270 841 C269 842 269 842 266.49609375 842.09765625 C265.48675781 842.08605469 264.47742188 842.07445312 263.4375 842.0625 C261.91962891 842.04896484 261.91962891 842.04896484 260.37109375 842.03515625 C259.19740234 842.01775391 259.19740234 842.01775391 258 842 C258.020625 842.804375 258.04125 843.60875 258.0625 844.4375 C258 847 258 847 257 848 C255.31816052 848.23287008 253.6287584 848.41264166 251.9375 848.5625 C251.01839844 848.64628906 250.09929688 848.73007812 249.15234375 848.81640625 C248.44207031 848.87699219 247.73179687 848.93757812 247 849 C246.67 850.32 246.34 851.64 246 853 C242.16275828 853.90413673 238.62497726 854.10576898 234.6875 854.0625 C233.61886719 854.05347656 232.55023437 854.04445313 231.44921875 854.03515625 C230.23685547 854.01775391 230.23685547 854.01775391 229 854 C229 855.65 229 857.3 229 859 C223.39 859 217.78 859 212 859 C212 860.98 212 862.96 212 865 C206.39 865 200.78 865 195 865 C194.67 866.65 194.34 868.3 194 870 C193 871 193 871 190.95874023 871.11352539 C190.08419189 871.10828857 189.20964355 871.10305176 188.30859375 871.09765625 C187.36435547 871.09443359 186.42011719 871.09121094 185.44726562 871.08789062 C184.45404297 871.07951172 183.46082031 871.07113281 182.4375 871.0625 C181.44041016 871.05798828 180.44332031 871.05347656 179.41601562 871.04882812 C176.94395151 871.03700007 174.47200482 871.02051849 172 871 C171.67 872.65 171.34 874.3 171 876 C166.99679847 876.95377184 163.27788253 877.1157616 159.16796875 877.09765625 C157.87568359 877.09443359 156.58339844 877.09121094 155.25195312 877.08789062 C153.89713474 877.07953665 152.54231703 877.07107172 151.1875 877.0625 C149.81315265 877.05748 148.43880355 877.05291797 147.06445312 877.04882812 C143.70959076 877.03705668 140.35481779 877.02061283 137 877 C137 877.99 137 878.98 137 880 C95.75 880 54.5 880 12 880 C11.67 879.01 11.34 878.02 11 877 C10.07662842 877.00523682 9.15325684 877.01047363 8.2019043 877.01586914 C4.77465186 877.03291585 1.3474445 877.0454525 -2.07983398 877.05493164 C-3.56291413 877.05995903 -5.04598933 877.06678185 -6.52905273 877.07543945 C-8.66130801 877.08757482 -10.79349773 877.09324425 -12.92578125 877.09765625 C-14.20880127 877.10289307 -15.49182129 877.10812988 -16.8137207 877.11352539 C-20 877 -20 877 -23 876 C-23 874.35 -23 872.7 -23 871 C-23.6612085 871.00523682 -24.32241699 871.01047363 -25.00366211 871.01586914 C-27.98159851 871.03657656 -30.95951982 871.04964012 -33.9375 871.0625 C-34.97841797 871.07087891 -36.01933594 871.07925781 -37.09179688 871.08789062 C-38.08115234 871.09111328 -39.07050781 871.09433594 -40.08984375 871.09765625 C-41.00628662 871.10289307 -41.92272949 871.10812988 -42.86694336 871.11352539 C-45 871 -45 871 -46 870 C-46 868.35 -46 866.7 -46 865 C-51.61 865 -57.22 865 -63 865 C-63 863.02 -63 861.04 -63 859 C-68.61 859 -74.22 859 -80 859 C-80.33 857.35 -80.66 855.7 -81 854 C-81.97582031 854.01160156 -82.95164062 854.02320313 -83.95703125 854.03515625 C-85.22933594 854.04417969 -86.50164062 854.05320312 -87.8125 854.0625 C-89.07707031 854.07410156 -90.34164063 854.08570313 -91.64453125 854.09765625 C-95 854 -95 854 -98 853 C-98 851.35 -98 849.7 -98 848 C-101.63 848 -105.26 848 -109 848 C-109 846.02 -109 844.04 -109 842 C-112.96 842 -116.92 842 -121 842 C-121 840.02 -121 838.04 -121 836 C-124.63 836 -128.26 836 -132 836 C-132 834.35 -132 832.7 -132 831 C-132.78246094 831.01160156 -133.56492187 831.02320313 -134.37109375 831.03515625 C-135.88896484 831.04869141 -135.88896484 831.04869141 -137.4375 831.0625 C-138.44683594 831.07410156 -139.45617187 831.08570313 -140.49609375 831.09765625 C-143 831 -143 831 -144 830 C-144.04063832 828.33382885 -144.042721 826.66611905 -144 825 C-144.71027344 825.01160156 -145.42054688 825.02320313 -146.15234375 825.03515625 C-147.53099609 825.04869141 -147.53099609 825.04869141 -148.9375 825.0625 C-149.85402344 825.07410156 -150.77054687 825.08570313 -151.71484375 825.09765625 C-154 825 -154 825 -155 824 C-155.04063832 822.33382885 -155.042721 820.66611905 -155 819 C-156.98 819 -158.96 819 -161 819 C-161 817.02 -161 815.04 -161 813 C-164.63 813 -168.26 813 -172 813 C-172.33 811.35 -172.66 809.7 -173 808 C-176.3 807.67 -179.6 807.34 -183 807 C-183.33 805.35 -183.66 803.7 -184 802 C-185.2065625 802.0309375 -185.2065625 802.0309375 -186.4375 802.0625 C-189 802 -189 802 -190 801 C-190.04063832 799.33382885 -190.042721 797.66611905 -190 796 C-191.2065625 796.0309375 -191.2065625 796.0309375 -192.4375 796.0625 C-195 796 -195 796 -196 795 C-196 793.35 -196 791.7 -196 790 C-199.3 790 -202.6 790 -206 790 C-206.33 788.35 -206.66 786.7 -207 785 C-208.65 784.67 -210.3 784.34 -212 784 C-212.33 782.35 -212.66 780.7 -213 779 C-214.65 779 -216.3 779 -218 779 C-218.33 777.02 -218.66 775.04 -219 773 C-220.65 773 -222.3 773 -224 773 C-224 771.02 -224 769.04 -224 767 C-225.98 767 -227.96 767 -230 767 C-230 765.35 -230 763.7 -230 762 C-231.2065625 762.0309375 -231.2065625 762.0309375 -232.4375 762.0625 C-235 762 -235 762 -236 761 C-236.04063832 759.33382885 -236.042721 757.66611905 -236 756 C-237.65 756 -239.3 756 -241 756 C-241.33 754.02 -241.66 752.04 -242 750 C-243.65 750 -245.3 750 -247 750 C-247 748.02 -247 746.04 -247 744 C-248.98 744 -250.96 744 -253 744 C-253 742.35 -253 740.7 -253 739 C-254.2065625 739.0309375 -254.2065625 739.0309375 -255.4375 739.0625 C-258 739 -258 739 -259 738 C-259.04063832 736.33382885 -259.042721 734.66611905 -259 733 C-260.65 733 -262.3 733 -264 733 C-264.33 731.35 -264.66 729.7 -265 728 C-266.65 727.67 -268.3 727.34 -270 727 C-270 725.02 -270 723.04 -270 721 C-271.2065625 721.0309375 -271.2065625 721.0309375 -272.4375 721.0625 C-275 721 -275 721 -276 720 C-276.07205511 718.31391034 -276.08386068 716.62499341 -276.0625 714.9375 C-276.05347656 714.01839844 -276.04445313 713.09929688 -276.03515625 712.15234375 C-276.02355469 711.44207031 -276.01195312 710.73179687 -276 710 C-277.98 710 -279.96 710 -282 710 C-282 708.02 -282 706.04 -282 704 C-283.65 704 -285.3 704 -287 704 C-287.061875 703.21625 -287.12375 702.4325 -287.1875 701.625 C-287.455625 700.75875 -287.72375 699.8925 -288 699 C-290.47636012 697.62533375 -290.47636012 697.62533375 -293 697 C-293 693.7 -293 690.4 -293 687 C-294.98 687 -296.96 687 -299 687 C-299 685.02 -299 683.04 -299 681 C-300.65 681 -302.3 681 -304 681 C-305.17571451 677.32589215 -305.07366746 673.83070817 -305 670 C-306.65 670 -308.3 670 -310 670 C-310 666.04 -310 662.08 -310 658 C-311.98 658 -313.96 658 -316 658 C-316 656.02 -316 654.04 -316 652 C-317.2065625 652.0309375 -317.2065625 652.0309375 -318.4375 652.0625 C-321 652 -321 652 -322 651 C-322.07205511 649.31391034 -322.08386068 647.62499341 -322.0625 645.9375 C-322.05347656 645.01839844 -322.04445313 644.09929688 -322.03515625 643.15234375 C-322.02355469 642.44207031 -322.01195312 641.73179687 -322 641 C-323.65 640.67 -325.3 640.34 -327 640 C-328.28317892 636.15046324 -328.06643637 633.05261865 -328 629 C-329.65 629 -331.3 629 -333 629 C-333 623.39 -333 617.78 -333 612 C-334.98 612 -336.96 612 -339 612 C-339 608.37 -339 604.74 -339 601 C-340.65 600.67 -342.3 600.34 -344 600 C-345 599 -345 599 -345.09765625 595.40234375 C-345.0909822 593.91403133 -345.07902183 592.42573568 -345.0625 590.9375 C-345.05798828 590.17888672 -345.05347656 589.42027344 -345.04882812 588.63867188 C-345.0370068 586.75908129 -345.01907078 584.87953101 -345 583 C-346.65 583 -348.3 583 -350 583 C-351.13480527 579.39006828 -351.10015767 576.0157673 -351.0625 572.25 C-351.05347656 571.07953125 -351.04445313 569.9090625 -351.03515625 568.703125 C-351.02355469 567.81109375 -351.01195312 566.9190625 -351 566 C-352.65 565.67 -354.3 565.34 -356 565 C-356 557.74 -356 550.48 -356 543 C-357.65 543 -359.3 543 -361 543 C-362.80394875 541.19605125 -362.23705789 538.43322201 -362.31640625 535.99609375 C-362.35830078 534.78115234 -362.40019531 533.56621094 -362.44335938 532.31445312 C-362.48267578 531.03505859 -362.52199219 529.75566406 -362.5625 528.4375 C-362.62727539 526.51260742 -362.62727539 526.51260742 -362.69335938 524.54882812 C-362.799848 521.36600147 -362.90185962 518.18309326 -363 515 C-363.639375 514.87625 -364.27875 514.7525 -364.9375 514.625 C-365.618125 514.41875 -366.29875 514.2125 -367 514 C-368.21983748 511.56032503 -368.12051527 510.00095476 -368.11352539 507.27490234 C-368.11340454 506.28031006 -368.11328369 505.28571777 -368.11315918 504.26098633 C-368.10804321 503.21322021 -368.10292725 502.1654541 -368.09765625 501.0859375 C-368.09664917 500.12469971 -368.09564209 499.16346191 -368.09460449 498.1730957 C-368.08936254 494.57371838 -368.07540133 490.97435802 -368.0625 487.375 C-368.041875 479.33125 -368.02125 471.2875 -368 463 C-397.37 463 -426.74 463 -457 463 C-457 442.21 -457 421.42 -457 400 C-427.63 400 -398.26 400 -368 400 C-368 389.44 -368 378.88 -368 368 C-367.67 367.34 -367.34 366.68 -367 366 C-365.35 366 -363.7 366 -362 366 C-362 356.43 -362 346.86 -362 337 C-360.02 337 -358.04 337 -356 337 C-356 329.41 -356 321.82 -356 314 C-354.35 314 -352.7 314 -351 314 C-351 308.72 -351 303.44 -351 298 C-349.02 297.34 -347.04 296.68 -345 296 C-345 290.72 -345 285.44 -345 280 C-343.02 279.67 -341.04 279.34 -339 279 C-339 275.37 -339 271.74 -339 268 C-337.02 268 -335.04 268 -333 268 C-333 262.39 -333 256.78 -333 251 C-331.35 251 -329.7 251 -328 251 C-328.01160156 250.30132812 -328.02320313 249.60265625 -328.03515625 248.8828125 C-328.04417969 247.97273437 -328.05320312 247.06265625 -328.0625 246.125 C-328.07990234 244.76761719 -328.07990234 244.76761719 -328.09765625 243.3828125 C-328 241 -328 241 -327 239 C-325.35 239 -323.7 239 -322 239 C-322 235.37 -322 231.74 -322 228 C-320.02 228 -318.04 228 -316 228 C-316.01160156 227.21753906 -316.02320313 226.43507812 -316.03515625 225.62890625 C-316.04417969 224.61699219 -316.05320312 223.60507813 -316.0625 222.5625 C-316.07410156 221.55316406 -316.08570313 220.54382813 -316.09765625 219.50390625 C-316 217 -316 217 -315 216 C-313.33382885 215.95936168 -311.66611905 215.957279 -310 216 C-310 214.02 -310 212.04 -310 210 C-308.35 210 -306.7 210 -305 210 C-305.01160156 209.37351563 -305.02320313 208.74703125 -305.03515625 208.1015625 C-305.04417969 207.28429687 -305.05320312 206.46703125 -305.0625 205.625 C-305.07410156 204.81289062 -305.08570313 204.00078125 -305.09765625 203.1640625 C-305 201 -305 201 -304 199 C-302.35 199 -300.7 199 -299 199 C-299 197.02 -299 195.04 -299 193 C-297.02 193 -295.04 193 -293 193 C-293 189.37 -293 185.74 -293 182 C-291.35 182 -289.7 182 -288 182 C-287.67 180.02 -287.34 178.04 -287 176 C-285.35 176 -283.7 176 -282 176 C-282.02320313 175.30132812 -282.04640625 174.60265625 -282.0703125 173.8828125 C-282.08835937 172.97273437 -282.10640625 172.06265625 -282.125 171.125 C-282.14820313 170.22007812 -282.17140625 169.31515625 -282.1953125 168.3828125 C-282 166 -282 166 -280 164 C-278.68 164 -277.36 164 -276 164 C-276 162.35 -276 160.7 -276 159 C-274.02 159 -272.04 159 -270 159 C-270 157.02 -270 155.04 -270 153 C-268.35 153 -266.7 153 -265 153 C-264.67 151.02 -264.34 149.04 -264 147 C-262.35 147 -260.7 147 -259 147 C-259.0309375 145.7934375 -259.0309375 145.7934375 -259.0625 144.5625 C-259 142 -259 142 -258 141 C-256.33382885 140.95936168 -254.66611905 140.957279 -253 141 C-253 139.35 -253 137.7 -253 136 C-251.02 136 -249.04 136 -247 136 C-247 132.37 -247 128.74 -247 125 C-244.03 124.505 -244.03 124.505 -241 124 C-241 122.35 -241 120.7 -241 119 C-237.37 118.67 -233.74 118.34 -230 118 C-230 116.35 -230 114.7 -230 113 C-228.02 113 -226.04 113 -224 113 C-224 111.02 -224 109.04 -224 107 C-222.35 107 -220.7 107 -219 107 C-219.0309375 105.7934375 -219.0309375 105.7934375 -219.0625 104.5625 C-219 102 -219 102 -218 101 C-216.33382885 100.95936168 -214.66611905 100.957279 -213 101 C-213.0309375 99.7934375 -213.0309375 99.7934375 -213.0625 98.5625 C-213 96 -213 96 -212 95 C-210.33382885 94.95936168 -208.66611905 94.957279 -207 95 C-207 93.35 -207 91.7 -207 90 C-205.02 90 -203.04 90 -201 90 C-201.0309375 88.7934375 -201.0309375 88.7934375 -201.0625 87.5625 C-201 85 -201 85 -200 84 C-198.31391034 83.92794489 -196.62499341 83.91613932 -194.9375 83.9375 C-193.55884766 83.95103516 -193.55884766 83.95103516 -192.15234375 83.96484375 C-191.08693359 83.98224609 -191.08693359 83.98224609 -190 84 C-190 82.02 -190 80.04 -190 78 C-188.02 78 -186.04 78 -184 78 C-184 76.35 -184 74.7 -184 73 C-181.59454362 71.79727181 -180.05003047 71.89928528 -177.375 71.9375 C-176.55773437 71.94652344 -175.74046875 71.95554687 -174.8984375 71.96484375 C-174.27195312 71.97644531 -173.64546875 71.98804687 -173 72 C-172.67 70.35 -172.34 68.7 -172 67 C-170.35 67 -168.7 67 -167 67 C-167.0309375 65.7934375 -167.0309375 65.7934375 -167.0625 64.5625 C-167 62 -167 62 -166 61 C-164.14712498 60.92773498 -162.29166122 60.9161878 -160.4375 60.9375 C-159.42558594 60.94652344 -158.41367187 60.95554688 -157.37109375 60.96484375 C-156.58863281 60.97644531 -155.80617188 60.98804688 -155 61 C-155 59.02 -155 57.04 -155 55 C-153.02 55 -151.04 55 -149 55 C-149 53.35 -149 51.7 -149 50 C-145.37 49.67 -141.74 49.34 -138 49 C-137.67 47.35 -137.34 45.7 -137 44 C-133.37 44 -129.74 44 -126 44 C-126 42.35 -126 40.7 -126 39 C-125 38 -125 38 -122.71484375 37.90234375 C-121.34005859 37.91974609 -121.34005859 37.91974609 -119.9375 37.9375 C-119.01839844 37.94652344 -118.09929687 37.95554688 -117.15234375 37.96484375 C-116.44207031 37.97644531 -115.73179687 37.98804688 -115 38 C-114.67 36.35 -114.34 34.7 -114 33 C-110.7 32.34 -107.4 31.68 -104 31 C-103.67 29.68 -103.34 28.36 -103 27 C-97.33357449 25.77482692 -91.76291482 25.90771133 -86 26 C-86 24.35 -86 22.7 -86 21 C-80.39 21 -74.78 21 -69 21 C-69 19.02 -69 17.04 -69 15 C-63.39 15 -57.78 15 -52 15 C-51.67 13.35 -51.34 11.7 -51 10 C-48.59940183 8.79970092 -47.10639351 8.88540257 -44.4296875 8.90234375 C-43.53378906 8.90556641 -42.63789063 8.90878906 -41.71484375 8.91210938 C-40.30912109 8.92467773 -40.30912109 8.92467773 -38.875 8.9375 C-37.93011719 8.94201172 -36.98523438 8.94652344 -36.01171875 8.95117188 C-33.67441613 8.96297643 -31.33723939 8.97944241 -29 9 C-29 7.35 -29 5.7 -29 4 C-25.3535194 3.1589522 -22.00049093 2.88235032 -18.26171875 2.90234375 C-17.19501953 2.90556641 -16.12832031 2.90878906 -15.02929688 2.91210938 C-13.37510742 2.92467773 -13.37510742 2.92467773 -11.6875 2.9375 C-10.56537109 2.94201172 -9.44324219 2.94652344 -8.28710938 2.95117188 C-5.5246849 2.96292687 -2.76237002 2.97935923 0 3 C0 2.01 0 1.02 0 0 Z M34 72 C34 73.65 34 75.3 34 77 C22.78 77.33 11.56 77.66 0 78 C-0.33 79.65 -0.66 81.3 -1 83 C-8.26 83.33 -15.52 83.66 -23 84 C-23.33 85.65 -23.66 87.3 -24 89 C-32.415 89.495 -32.415 89.495 -41 90 C-41.33 91.32 -41.66 92.64 -42 94 C-47.28 94.33 -52.56 94.66 -58 95 C-58 96.65 -58 98.3 -58 100 C-63.445 100.495 -63.445 100.495 -69 101 C-69.33 102.65 -69.66 104.3 -70 106 C-78.415 106.495 -78.415 106.495 -87 107 C-87 108.65 -87 110.3 -87 112 C-90.63 112.33 -94.26 112.66 -98 113 C-98 114.65 -98 116.3 -98 118 C-99.98 118 -101.96 118 -104 118 C-104 119.65 -104 121.3 -104 123 C-107.63 123.33 -111.26 123.66 -115 124 C-115.66 125.65 -116.32 127.3 -117 129 C-121.95 129.495 -121.95 129.495 -127 130 C-127 131.65 -127 133.3 -127 135 C-129.97 135.495 -129.97 135.495 -133 136 C-133 137.65 -133 139.3 -133 141 C-136.63 141 -140.26 141 -144 141 C-144 142.98 -144 144.96 -144 147 C-145.98 147 -147.96 147 -150 147 C-150 148.98 -150 150.96 -150 153 C-151.98 153 -153.96 153 -156 153 C-156 154.65 -156 156.3 -156 158 C-157.65 158 -159.3 158 -161 158 C-161.33 159.98 -161.66 161.96 -162 164 C-163.65 164 -165.3 164 -167 164 C-167.66 165.65 -168.32 167.3 -169 169 C-173.455 169.495 -173.455 169.495 -178 170 C-178.33 171.65 -178.66 173.3 -179 175 C-180.65 175.33 -182.3 175.66 -184 176 C-184 177.65 -184 179.3 -184 181 C-185.98 181 -187.96 181 -190 181 C-190 182.98 -190 184.96 -190 187 C-191.98 187 -193.96 187 -196 187 C-196 188.98 -196 190.96 -196 193 C-197.65 193 -199.3 193 -201 193 C-201.33 196.63 -201.66 200.26 -202 204 C-203.65 204 -205.3 204 -207 204 C-207.33 205.65 -207.66 207.3 -208 209 C-209.65 209.33 -211.3 209.66 -213 210 C-213 211.98 -213 213.96 -213 216 C-214.98 216 -216.96 216 -219 216 C-219 217.98 -219 219.96 -219 222 C-220.65 222 -222.3 222 -224 222 C-224.33 225.63 -224.66 229.26 -225 233 C-226.65 233 -228.3 233 -230 233 C-230 234.98 -230 236.96 -230 239 C-231.98 239 -233.96 239 -236 239 C-236 242.63 -236 246.26 -236 250 C-237.98 250 -239.96 250 -242 250 C-242 253.63 -242 257.26 -242 261 C-243.65 261.33 -245.3 261.66 -247 262 C-247.33 263.65 -247.66 265.3 -248 267 C-249.65 267.33 -251.3 267.66 -253 268 C-253 271.63 -253 275.26 -253 279 C-254.98 279 -256.96 279 -259 279 C-259.33 282.63 -259.66 286.26 -260 290 C-261.65 290.33 -263.3 290.66 -265 291 C-265.33 296.28 -265.66 301.56 -266 307 C-267.32 307.33 -268.64 307.66 -270 308 C-270.66 313.28 -271.32 318.56 -272 324 C-273.32 324.33 -274.64 324.66 -276 325 C-276.495 332.92 -276.495 332.92 -277 341 C-278.65 341.33 -280.3 341.66 -282 342 C-282.33 349.26 -282.66 356.52 -283 364 C-284.65 364.33 -286.3 364.66 -288 365 C-288 376.22 -288 387.44 -288 399 C-288.99 399.33 -289.98 399.66 -291 400 C-51.09 400 188.82 400 436 400 C436 390.43 436 380.86 436 371 C434.35 371 432.7 371 431 371 C431 363.41 431 355.82 431 348 C429.35 347.67 427.7 347.34 426 347 C425.67 339.74 425.34 332.48 425 325 C423.02 325 421.04 325 419 325 C419 321.04 419 317.08 419 313 C417.35 313 415.7 313 414 313 C413.67 307.39 413.34 301.78 413 296 C411.35 296 409.7 296 408 296 C408 292.37 408 288.74 408 285 C406.35 284.67 404.7 284.34 403 284 C402.67 280.37 402.34 276.74 402 273 C400.35 272.67 398.7 272.34 397 272 C396.67 268.7 396.34 265.4 396 262 C394.35 262 392.7 262 391 262 C390.67 258.04 390.34 254.08 390 250 C388.35 250 386.7 250 385 250 C385 248.35 385 246.7 385 245 C382.525 244.01 382.525 244.01 380 243 C379.67 239.7 379.34 236.4 379 233 C377.02 233 375.04 233 373 233 C373 231.02 373 229.04 373 227 C371.35 227 369.7 227 368 227 C367.67 223.37 367.34 219.74 367 216 C365.35 216 363.7 216 362 216 C362 214.02 362 212.04 362 210 C360.02 210 358.04 210 356 210 C356 208.02 356 206.04 356 204 C354.02 204 352.04 204 350 204 C350 202.35 350 200.7 350 199 C347.525 198.505 347.525 198.505 345 198 C344.67 196.35 344.34 194.7 344 193 C342.68 192.67 341.36 192.34 340 192 C339.67 190.35 339.34 188.7 339 187 C336.525 186.505 336.525 186.505 334 186 C333.67 184.35 333.34 182.7 333 181 C331.35 181 329.7 181 328 181 C327.67 179.35 327.34 177.7 327 176 C325.68 175.67 324.36 175.34 323 175 C322.67 173.35 322.34 171.7 322 170 C319.525 169.505 319.525 169.505 317 169 C316.67 167.35 316.34 165.7 316 164 C313.525 163.505 313.525 163.505 311 163 C310.67 161.35 310.34 159.7 310 158 C308.02 158 306.04 158 304 158 C304 156.35 304 154.7 304 153 C302.35 153 300.7 153 299 153 C298.67 151.02 298.34 149.04 298 147 C294.7 146.67 291.4 146.34 288 146 C287.67 144.35 287.34 142.7 287 141 C284.525 140.505 284.525 140.505 282 140 C281.67 138.68 281.34 137.36 281 136 C277.7 135.34 274.4 134.68 271 134 C270.67 132.68 270.34 131.36 270 130 C267.525 129.505 267.525 129.505 265 129 C264.67 127.35 264.34 125.7 264 124 C260.37 124 256.74 124 253 124 C253 122.02 253 120.04 253 118 C249.37 117.67 245.74 117.34 242 117 C241.67 115.68 241.34 114.36 241 113 C237.37 112.67 233.74 112.34 230 112 C230 110.35 230 108.7 230 107 C226.04 106.67 222.08 106.34 218 106 C218 104.35 218 102.7 218 101 C214.37 101 210.74 101 207 101 C207 99.02 207 97.04 207 95 C201.39 95 195.78 95 190 95 C189.67 93.35 189.34 91.7 189 90 C183.72 89.34 178.44 88.68 173 88 C172.67 86.68 172.34 85.36 172 84 C164.41 83.67 156.82 83.34 149 83 C149 81.35 149 79.7 149 78 C138.11 77.67 127.22 77.34 116 77 C115.67 75.35 115.34 73.7 115 72 C88.27 72 61.54 72 34 72 Z M-293 463 C-293 468.61 -293 474.22 -293 480 C-291.35 480.33 -289.7 480.66 -288 481 C-288 492.22 -288 503.44 -288 515 C-286.02 515 -284.04 515 -282 515 C-282 522.59 -282 530.18 -282 538 C-280.35 538.33 -278.7 538.66 -277 539 C-276.505 546.92 -276.505 546.92 -276 555 C-274.68 555.33 -273.36 555.66 -272 556 C-271.34 561.28 -270.68 566.56 -270 572 C-268.35 572 -266.7 572 -265 572 C-265 575.96 -265 579.92 -265 584 C-263.35 584.33 -261.7 584.66 -260 585 C-259.505 589.95 -259.505 589.95 -259 595 C-257.35 595.33 -255.7 595.66 -254 596 C-253.505 601.445 -253.505 601.445 -253 607 C-251.68 607.33 -250.36 607.66 -249 608 C-248.34 611.3 -247.68 614.6 -247 618 C-245.68 618.33 -244.36 618.66 -243 619 C-242.505 624.445 -242.505 624.445 -242 630 C-240.02 630 -238.04 630 -236 630 C-236 631.98 -236 633.96 -236 636 C-234.35 636 -232.7 636 -231 636 C-230.505 641.445 -230.505 641.445 -230 647 C-228.35 647.33 -226.7 647.66 -225 648 C-224.505 650.475 -224.505 650.475 -224 653 C-222.68 653.33 -221.36 653.66 -220 654 C-219.67 657.3 -219.34 660.6 -219 664 C-217.02 664 -215.04 664 -213 664 C-213 665.98 -213 667.96 -213 670 C-211.02 670 -209.04 670 -207 670 C-207 671.98 -207 673.96 -207 676 C-205.35 676 -203.7 676 -202 676 C-201.505 678.475 -201.505 678.475 -201 681 C-199.35 681.33 -197.7 681.66 -196 682 C-196 683.65 -196 685.3 -196 687 C-194.35 687.33 -192.7 687.66 -191 688 C-190.505 690.475 -190.505 690.475 -190 693 C-189.38125 693.061875 -188.7625 693.12375 -188.125 693.1875 C-186 694 -186 694 -184.75 696.5625 C-184.5025 697.366875 -184.255 698.17125 -184 699 C-182.35 699 -180.7 699 -179 699 C-178.505 701.475 -178.505 701.475 -178 704 C-176.35 704.33 -174.7 704.66 -173 705 C-173 706.65 -173 708.3 -173 710 C-171.35 710.33 -169.7 710.66 -168 711 C-167.505 713.475 -167.505 713.475 -167 716 C-165.35 716.33 -163.7 716.66 -162 717 C-161.67 718.65 -161.34 720.3 -161 722 C-159.35 722.33 -157.7 722.66 -156 723 C-155.67 724.32 -155.34 725.64 -155 727 C-153.35 727 -151.7 727 -150 727 C-150 728.98 -150 730.96 -150 733 C-146.37 733 -142.74 733 -139 733 C-138.67 734.98 -138.34 736.96 -138 739 C-136.35 739 -134.7 739 -133 739 C-132.67 740.98 -132.34 742.96 -132 745 C-128.37 745 -124.74 745 -121 745 C-121 746.65 -121 748.3 -121 750 C-119.35 750.33 -117.7 750.66 -116 751 C-115.67 752.65 -115.34 754.3 -115 756 C-111.7 756.33 -108.4 756.66 -105 757 C-104.67 758.65 -104.34 760.3 -104 762 C-100.37 762 -96.74 762 -93 762 C-92.67 763.98 -92.34 765.96 -92 768 C-88.37 768 -84.74 768 -81 768 C-81 769.65 -81 771.3 -81 773 C-77.7 773.33 -74.4 773.66 -71 774 C-70.34 775.65 -69.68 777.3 -69 779 C-65.37 779 -61.74 779 -58 779 C-58 780.98 -58 782.96 -58 785 C-52.39 785 -46.78 785 -41 785 C-41 786.65 -41 788.3 -41 790 C-36.4161086 791.09315246 -31.87488993 791.32282625 -27.1875 791.5625 C-26.39923828 791.60568359 -25.61097656 791.64886719 -24.79882812 791.69335938 C-22.86605785 791.79878321 -20.93304974 791.89983094 -19 792 C-18.67 793.32 -18.34 794.64 -18 796 C-10.74 796.33 -3.48 796.66 4 797 C4.33 798.65 4.66 800.3 5 802 C18.2 802 31.4 802 45 802 C45.33 803.98 45.66 805.96 46 808 C64.81 808 83.62 808 103 808 C103.33 806.35 103.66 804.7 104 803 C123.305 802.505 123.305 802.505 143 802 C143.66 800.35 144.32 798.7 145 797 C151.93 796.67 158.86 796.34 166 796 C166.33 794.35 166.66 792.7 167 791 C168.58941406 791.01740234 168.58941406 791.01740234 170.2109375 791.03515625 C171.59895658 791.04453476 172.98697755 791.05363489 174.375 791.0625 C175.07367187 791.07087891 175.77234375 791.07925781 176.4921875 791.08789062 C180.37295376 791.1835442 180.37295376 791.1835442 184 790 C184.33 788.68 184.66 787.36 185 786 C190.28 785.67 195.56 785.34 201 785 C201 783.35 201 781.7 201 780 C206.61 779.67 212.22 779.34 218 779 C218.33 777.35 218.66 775.7 219 774 C222.63 773.67 226.26 773.34 230 773 C230 771.35 230 769.7 230 768 C233.63 768 237.26 768 241 768 C241 766.02 241 764.04 241 762 C244.96 762 248.92 762 253 762 C253 760.02 253 758.04 253 756 C254.65 756 256.3 756 258 756 C258.33 754.35 258.66 752.7 259 751 C262.63 750.67 266.26 750.34 270 750 C270 748.35 270 746.7 270 745 C273.63 745 277.26 745 281 745 C281 743.02 281 741.04 281 739 C282.98 739 284.96 739 287 739 C287 737.02 287 735.04 287 733 C288.98 733 290.96 733 293 733 C293.33 731.68 293.66 730.36 294 729 C297.3 728.34 300.6 727.68 304 727 C304 725.35 304 723.7 304 722 C305.98 722 307.96 722 310 722 C310 720.02 310 718.04 310 716 C311.98 716 313.96 716 316 716 C316 714.02 316 712.04 316 710 C317.65 710 319.3 710 321 710 C321.2475 709.195625 321.495 708.39125 321.75 707.5625 C323 705 323 705 325.125 704.1875 C325.74375 704.125625 326.3625 704.06375 327 704 C327.33 702.68 327.66 701.36 328 700 C329.65 699.67 331.3 699.34 333 699 C333.33 697.35 333.66 695.7 334 694 C335.65 693.67 337.3 693.34 339 693 C339 691.02 339 689.04 339 687 C340.65 687 342.3 687 344 687 C344.2475 686.195625 344.495 685.39125 344.75 684.5625 C346 682 346 682 348.125 681.1875 C348.74375 681.125625 349.3625 681.06375 350 681 C350 679.35 350 677.7 350 676 C351.98 676 353.96 676 356 676 C356 674.02 356 672.04 356 670 C357.98 670 359.96 670 362 670 C362 666.37 362 662.74 362 659 C363.65 658.67 365.3 658.34 367 658 C367.33 656.35 367.66 654.7 368 653 C369.65 653 371.3 653 373 653 C373 651.02 373 649.04 373 647 C374.98 647 376.96 647 379 647 C379 643.37 379 639.74 379 636 C380.98 635.67 382.96 635.34 385 635 C385.33 631.7 385.66 628.4 386 625 C387.98 624.505 387.98 624.505 390 624 C390.33 622.35 390.66 620.7 391 619 C392.65 618.67 394.3 618.34 396 618 C396 614.37 396 610.74 396 607 C397.98 607 399.96 607 402 607 C402.33 603.37 402.66 599.74 403 596 C404.65 595.67 406.3 595.34 408 595 C408 591.37 408 587.74 408 584 C409.65 584 411.3 584 413 584 C413.33 578.39 413.66 572.78 414 567 C415.65 567 417.3 567 419 567 C419.33 561.39 419.66 555.78 420 550 C421.65 549.67 423.3 549.34 425 549 C425.33 543.72 425.66 538.44 426 533 C427.65 532.67 429.3 532.34 431 532 C431 524.41 431 516.82 431 509 C432.65 509 434.3 509 436 509 C436.33 495.8 436.66 482.6 437 469 C438.65 469 440.3 469 442 469 C442 467.02 442 465.04 442 463 C199.45 463 -43.1 463 -293 463 Z " fill="#000000" transform="translate(457,15)"/>
<path d="M0 0 C153.45 0 306.9 0 465 0 C465 20.79 465 41.58 465 63 C311.55 63 158.1 63 0 63 C0 42.21 0 21.42 0 0 Z " fill="#000000" transform="translate(296,553)"/>
<path d="M0 0 C153.45 0 306.9 0 465 0 C465 20.79 465 41.58 465 63 C311.55 63 158.1 63 0 63 C0 42.21 0 21.42 0 0 Z " fill="#000000" transform="translate(296,277)"/>
</svg>
