<svg width="28" height="28" viewBox="0 0 28 28" fill="none" xmlns="http://www.w3.org/2000/svg">
<path d="M25.6654 13.9999C25.6654 7.55992 20.4387 2.33325 13.9987 2.33325C7.5587 2.33325 2.33203 7.55992 2.33203 13.9999C2.33203 19.6466 6.34536 24.3483 11.6654 25.4333L11.6654 17.4999L9.33203 17.4999L9.33203 13.9999L11.6654 13.9999L11.6654 11.0833C11.6654 8.83159 13.497 6.99992 15.7487 6.99992L18.6654 6.99992L18.6654 10.4999L16.332 10.4999C15.6904 10.4999 15.1654 11.0249 15.1654 11.6666L15.1654 13.9999L18.6654 13.9999L18.6654 17.4999L15.1654 17.4999L15.1654 25.6083C21.057 25.0249 25.6654 20.0549 25.6654 13.9999Z" fill="#2FB100"/>
</svg>
