<svg width="28" height="28" viewBox="0 0 28 28" fill="none" xmlns="http://www.w3.org/2000/svg">
<path d="M13.9987 2.33325C17.1685 2.33325 17.564 2.34492 18.8077 2.40325C20.0502 2.46159 20.896 2.65642 21.6404 2.94575C22.4104 3.24209 23.059 3.64342 23.7077 4.29092C24.3009 4.87413 24.76 5.57961 25.0529 6.35825C25.341 7.10142 25.537 7.94842 25.5954 9.19092C25.6502 10.4346 25.6654 10.8301 25.6654 13.9999C25.6654 17.1698 25.6537 17.5653 25.5954 18.8089C25.537 20.0514 25.341 20.8973 25.0529 21.6416C24.7608 22.4207 24.3017 23.1263 23.7077 23.7089C23.1243 24.302 22.4189 24.761 21.6404 25.0541C20.8972 25.3423 20.0502 25.5383 18.8077 25.5966C17.564 25.6514 17.1685 25.6666 13.9987 25.6666C10.8289 25.6666 10.4334 25.6549 9.1897 25.5966C7.9472 25.5383 7.10136 25.3423 6.35703 25.0541C5.57808 24.7618 4.87248 24.3027 4.2897 23.7089C3.69634 23.1258 3.23728 22.4203 2.94453 21.6416C2.6552 20.8984 2.46036 20.0514 2.40203 18.8089C2.3472 17.5653 2.33203 17.1698 2.33203 13.9999C2.33203 10.8301 2.3437 10.4346 2.40203 9.19092C2.46036 7.94725 2.6552 7.10259 2.94453 6.35825C3.23647 5.57913 3.69564 4.87346 4.2897 4.29092C4.87265 3.69736 5.5782 3.23827 6.35703 2.94575C7.10136 2.65642 7.94603 2.46159 9.1897 2.40325C10.4334 2.34842 10.8289 2.33325 13.9987 2.33325ZM13.9987 8.16659C12.4516 8.16659 10.9679 8.78117 9.87391 9.87513C8.77995 10.9691 8.16536 12.4528 8.16537 13.9999C8.16537 15.547 8.77995 17.0307 9.87391 18.1247C10.9679 19.2187 12.4516 19.8333 13.9987 19.8333C15.5458 19.8333 17.0295 19.2187 18.1235 18.1247C19.2175 17.0307 19.832 15.547 19.832 13.9999C19.832 12.4528 19.2175 10.9691 18.1235 9.87513C17.0295 8.78117 15.5458 8.16659 13.9987 8.16659V8.16659ZM21.582 7.87492C21.582 7.48814 21.4284 7.11721 21.1549 6.84372C20.8814 6.57023 20.5105 6.41659 20.1237 6.41659C19.7369 6.41659 19.366 6.57023 19.0925 6.84372C18.819 7.11721 18.6654 7.48814 18.6654 7.87492C18.6654 8.26169 18.819 8.63263 19.0925 8.90612C19.366 9.17961 19.7369 9.33325 20.1237 9.33325C20.5105 9.33325 20.8814 9.17961 21.1549 8.90612C21.4284 8.63263 21.582 8.26169 21.582 7.87492ZM13.9987 10.4999C14.927 10.4999 15.8172 10.8687 16.4736 11.525C17.13 12.1814 17.4987 13.0717 17.4987 13.9999C17.4987 14.9282 17.13 15.8184 16.4736 16.4748C15.8172 17.1312 14.927 17.4999 13.9987 17.4999C13.0704 17.4999 12.1802 17.1312 11.5238 16.4748C10.8674 15.8184 10.4987 14.9282 10.4987 13.9999C10.4987 13.0717 10.8674 12.1814 11.5238 11.525C12.1802 10.8687 13.0704 10.4999 13.9987 10.4999V10.4999Z" fill="#2FB100"/>
</svg>
